<svg xmlns="http://www.w3.org/2000/svg" width="128" height="128" viewBox="0 0 128 128">
  <!-- Monokai-dark rounded tile -->
  <rect width="128" height="128" rx="28" fill="#272822"/>

  <!-- gutter divider -->
  <rect x="33" y="16" width="2" height="96" rx="1" fill="#3e3d32"/>

  <!-- Row 1: added (green-tinted) -->
  <rect x="10" y="32" width="108" height="18" rx="5" fill="#a6e22e" opacity="0.16"/>
  <rect x="17" y="39.8" width="10" height="2.6" rx="1.3" fill="#a6e22e"/>
  <rect x="20.7" y="36" width="2.6" height="10" rx="1.3" fill="#a6e22e"/>
  <rect x="44" y="37.5" width="22" height="7" rx="3.5" fill="#f92672"/>
  <rect x="70" y="37.5" width="34" height="7" rx="3.5" fill="#e6db74"/>

  <!-- Row 2: removed (pink-tinted) -->
  <rect x="10" y="57" width="108" height="18" rx="5" fill="#f92672" opacity="0.16"/>
  <rect x="17" y="64.7" width="10" height="2.6" rx="1.3" fill="#f92672"/>
  <rect x="44" y="62.5" width="30" height="7" rx="3.5" fill="#66d9ef"/>
  <rect x="78" y="62.5" width="20" height="7" rx="3.5" fill="#75715e"/>

  <!-- Row 3: context -->
  <rect x="44" y="87.5" width="18" height="7" rx="3.5" fill="#ae81ff"/>
  <rect x="66" y="87.5" width="26" height="7" rx="3.5" fill="#a6e22e"/>
  <rect x="96" y="87.5" width="12" height="7" rx="3.5" fill="#f8f8f2"/>
</svg>
