<svg xmlns="http://www.w3.org/2000/svg" width="880" height="354" viewBox="0 0 880 354"><rect width="880" height="354" rx="16" fill="#16160f"/><rect x="20" y="20" width="840" height="232" rx="12" fill="#272822"/><rect x="20" y="20" width="840" height="36" rx="12" fill="#1f1f1a"/><rect x="20" y="44" width="840" height="12" fill="#1f1f1a"/><circle cx="40" cy="38.0" r="6" fill="#ff5f57"/><circle cx="60" cy="38.0" r="6" fill="#febc2e"/><circle cx="80" cy="38.0" r="6" fill="#28c840"/><text x="440.0" y="43.0" text-anchor="middle" font-family="Noto Sans Mono, monospace" font-size="14" fill="#9b9b8f">PR diff &#183; Monokai</text><rect x="20" y="56" width="48" height="182" fill="#21211c"/><text x="58" y="74" text-anchor="end" font-family="Noto Sans Mono, monospace" font-size="14" fill="#6b6b5e">12</text><text x="92" y="74" xml:space="preserve" font-family="Noto Sans Mono, monospace" font-size="15"><tspan fill="#f92672">import </tspan><tspan fill="#f8f8f2">{ </tspan><tspan fill="#66d9ef" font-style="italic">CircleROITool</tspan><tspan fill="#f8f8f2"> }</tspan><tspan fill="#f92672"> from </tspan><tspan fill="#e6db74">'@cs/tools'</tspan><tspan fill="#f8f8f2">;</tspan></text><text x="58" y="100" text-anchor="end" font-family="Noto Sans Mono, monospace" font-size="14" fill="#6b6b5e">13</text><text x="92" y="100" xml:space="preserve" font-family="Noto Sans Mono, monospace" font-size="15"></text><text x="58" y="126" text-anchor="end" font-family="Noto Sans Mono, monospace" font-size="14" fill="#6b6b5e">14</text><text x="92" y="126" xml:space="preserve" font-family="Noto Sans Mono, monospace" font-size="15"><tspan fill="#f92672">class </tspan><tspan fill="#66d9ef" font-style="italic">DynamikaCircleROI</tspan><tspan fill="#f92672"> extends </tspan><tspan fill="#66d9ef" font-style="italic">CircleROITool</tspan><tspan fill="#f8f8f2"> {</tspan></text><rect x="70" y="134" width="790" height="26" fill="rgba(249,38,114,0.16)"/><text x="58" y="152" text-anchor="end" font-family="Noto Sans Mono, monospace" font-size="14" fill="#f92672">15</text><text x="74" y="152" font-family="Noto Sans Mono, monospace" font-size="15" fill="#f92672">-</text><text x="92" y="152" xml:space="preserve" font-family="Noto Sans Mono, monospace" font-size="15"><tspan fill="#f8f8f2">  </tspan><tspan fill="#f92672">return</tspan><tspan fill="#f8f8f2"> sum;</tspan></text><rect x="70" y="160" width="790" height="26" fill="rgba(166,226,46,0.16)"/><text x="58" y="178" text-anchor="end" font-family="Noto Sans Mono, monospace" font-size="14" fill="#a6e22e">15</text><text x="74" y="178" font-family="Noto Sans Mono, monospace" font-size="15" fill="#a6e22e">+</text><text x="92" y="178" xml:space="preserve" font-family="Noto Sans Mono, monospace" font-size="15"><tspan fill="#f8f8f2">  </tspan><tspan fill="#f92672">return</tspan><tspan fill="#f8f8f2"> </tspan><tspan fill="#66d9ef" font-style="italic">Math</tspan><tspan fill="#f8f8f2">.</tspan><tspan fill="#a6e22e">round</tspan><tspan fill="#f8f8f2">(</tspan><tspan fill="#f8f8f2">sum </tspan><tspan fill="#f92672">*</tspan><tspan fill="#f8f8f2"> </tspan><tspan fill="#ae81ff">100</tspan><tspan fill="#f8f8f2">)</tspan><tspan fill="#f8f8f2"> / </tspan><tspan fill="#ae81ff">100</tspan><tspan fill="#f8f8f2">;</tspan></text><rect x="70" y="186" width="790" height="26" fill="rgba(166,226,46,0.16)"/><text x="58" y="204" text-anchor="end" font-family="Noto Sans Mono, monospace" font-size="14" fill="#a6e22e">16</text><text x="74" y="204" font-family="Noto Sans Mono, monospace" font-size="15" fill="#a6e22e">+</text><text x="92" y="204" xml:space="preserve" font-family="Noto Sans Mono, monospace" font-size="15"><tspan fill="#f8f8f2">  </tspan><tspan fill="#75715e" font-style="italic">// rounded to 2 decimals</tspan></text><text x="58" y="230" text-anchor="end" font-family="Noto Sans Mono, monospace" font-size="14" fill="#6b6b5e">17</text><text x="92" y="230" xml:space="preserve" font-family="Noto Sans Mono, monospace" font-size="15"><tspan fill="#f8f8f2">}</tspan></text><rect x="20.0" y="274" width="69.0909090909091" height="44" rx="7" fill="#272822" stroke="#3a3a32" stroke-width="1"/><rect x="28.0" y="284" width="53.09090909090909" height="4.5" rx="2.25" fill="#f92672"/><rect x="28.0" y="293" width="47.09090909090909" height="4.5" rx="2.25" fill="#e6db74"/><rect x="28.0" y="302" width="41.09090909090909" height="4.5" rx="2.25" fill="#a6e22e"/><rect x="97.0909090909091" y="274" width="69.0909090909091" height="44" rx="7" fill="#2d2a2e" stroke="#3a3a32" stroke-width="1"/><rect x="105.0909090909091" y="284" width="53.09090909090909" height="4.5" rx="2.25" fill="#ff6188"/><rect x="105.0909090909091" y="293" width="47.09090909090909" height="4.5" rx="2.25" fill="#ffd866"/><rect x="105.0909090909091" y="302" width="41.09090909090909" height="4.5" rx="2.25" fill="#a9dc76"/><rect x="174.1818181818182" y="274" width="69.0909090909091" height="44" rx="7" fill="#ffffff" stroke="#3a3a32" stroke-width="1"/><rect x="182.1818181818182" y="284" width="53.09090909090909" height="4.5" rx="2.25" fill="#cf222e"/><rect x="182.1818181818182" y="293" width="47.09090909090909" height="4.5" rx="2.25" fill="#0a3069"/><rect x="182.1818181818182" y="302" width="41.09090909090909" height="4.5" rx="2.25" fill="#8250df"/><rect x="251.27272727272728" y="274" width="69.0909090909091" height="44" rx="7" fill="#282c34" stroke="#3a3a32" stroke-width="1"/><rect x="259.27272727272725" y="284" width="53.09090909090909" height="4.5" rx="2.25" fill="#c678dd"/><rect x="259.27272727272725" y="293" width="47.09090909090909" height="4.5" rx="2.25" fill="#98c379"/><rect x="259.27272727272725" y="302" width="41.09090909090909" height="4.5" rx="2.25" fill="#61afef"/><rect x="328.3636363636364" y="274" width="69.0909090909091" height="44" rx="7" fill="#282a36" stroke="#3a3a32" stroke-width="1"/><rect x="336.3636363636364" y="284" width="53.09090909090909" height="4.5" rx="2.25" fill="#ff79c6"/><rect x="336.3636363636364" y="293" width="47.09090909090909" height="4.5" rx="2.25" fill="#f1fa8c"/><rect x="336.3636363636364" y="302" width="41.09090909090909" height="4.5" rx="2.25" fill="#50fa7b"/><rect x="405.4545454545455" y="274" width="69.0909090909091" height="44" rx="7" fill="#2e3440" stroke="#3a3a32" stroke-width="1"/><rect x="413.4545454545455" y="284" width="53.09090909090909" height="4.5" rx="2.25" fill="#81a1c1"/><rect x="413.4545454545455" y="293" width="47.09090909090909" height="4.5" rx="2.25" fill="#a3be8c"/><rect x="413.4545454545455" y="302" width="41.09090909090909" height="4.5" rx="2.25" fill="#88c0d0"/><rect x="482.54545454545456" y="274" width="69.0909090909091" height="44" rx="7" fill="#1a1b26" stroke="#3a3a32" stroke-width="1"/><rect x="490.54545454545456" y="284" width="53.09090909090909" height="4.5" rx="2.25" fill="#bb9af7"/><rect x="490.54545454545456" y="293" width="47.09090909090909" height="4.5" rx="2.25" fill="#9ece6a"/><rect x="490.54545454545456" y="302" width="41.09090909090909" height="4.5" rx="2.25" fill="#7aa2f7"/><rect x="559.6363636363636" y="274" width="69.0909090909091" height="44" rx="7" fill="#282828" stroke="#3a3a32" stroke-width="1"/><rect x="567.6363636363636" y="284" width="53.09090909090909" height="4.5" rx="2.25" fill="#fb4934"/><rect x="567.6363636363636" y="293" width="47.09090909090909" height="4.5" rx="2.25" fill="#b8bb26"/><rect x="567.6363636363636" y="302" width="41.09090909090909" height="4.5" rx="2.25" fill="#fabd2f"/><rect x="636.7272727272727" y="274" width="69.0909090909091" height="44" rx="7" fill="#0d1117" stroke="#3a3a32" stroke-width="1"/><rect x="644.7272727272727" y="284" width="53.09090909090909" height="4.5" rx="2.25" fill="#ff7b72"/><rect x="644.7272727272727" y="293" width="47.09090909090909" height="4.5" rx="2.25" fill="#a5d6ff"/><rect x="644.7272727272727" y="302" width="41.09090909090909" height="4.5" rx="2.25" fill="#d2a8ff"/><rect x="713.8181818181819" y="274" width="69.0909090909091" height="44" rx="7" fill="#002b36" stroke="#3a3a32" stroke-width="1"/><rect x="721.8181818181819" y="284" width="53.09090909090909" height="4.5" rx="2.25" fill="#859900"/><rect x="721.8181818181819" y="293" width="47.09090909090909" height="4.5" rx="2.25" fill="#2aa198"/><rect x="721.8181818181819" y="302" width="41.09090909090909" height="4.5" rx="2.25" fill="#268bd2"/><rect x="790.909090909091" y="274" width="69.0909090909091" height="44" rx="7" fill="#011627" stroke="#3a3a32" stroke-width="1"/><rect x="798.909090909091" y="284" width="53.09090909090909" height="4.5" rx="2.25" fill="#c792ea"/><rect x="798.909090909091" y="293" width="47.09090909090909" height="4.5" rx="2.25" fill="#ecc48d"/><rect x="798.909090909091" y="302" width="41.09090909090909" height="4.5" rx="2.25" fill="#82aaff"/><text x="440.0" y="338" text-anchor="middle" font-family="Noto Sans Mono, monospace" font-size="11" fill="#8a8a7e">Monokai  ·  Monokai Pro  ·  GitHub Light  ·  One Dark  ·  Dracula  ·  Nord  ·  Tokyo Night  ·  Gruvbox  ·  GitHub Dark  ·  Solarized  ·  Night Owl</text></svg>